<svg width="200" height="58" viewBox="0 0 200 58" fill="none" xmlns="http://www.w3.org/2000/svg">
<g clip-path="url(#clip0_817_1133)">
<path d="M79.5551 26.3173C80.2813 25.2284 80.659 23.9442 80.6379 22.6355C80.6781 21.5672 80.4198 20.5089 79.892 19.5793C79.3993 18.7813 78.7227 18.1129 77.9187 17.63C77.0696 17.1429 76.175 16.7399 75.2475 16.4268C74.2853 16.1111 73.3049 15.854 72.3116 15.6568L69.6164 15.007C68.9157 14.8377 68.2539 14.5355 67.6672 14.1166C67.433 13.9398 67.2435 13.7106 67.114 13.4473C66.9844 13.184 66.9184 12.894 66.9212 12.6006C66.9437 12.1321 67.1026 11.6804 67.3784 11.3011C67.7584 10.8495 68.2593 10.5156 68.8223 10.3385C69.6614 10.0694 70.5406 9.94733 71.4213 9.97754C72.4948 10.0001 73.5615 10.1536 74.5978 10.4348C75.7409 10.7557 76.8402 11.2164 77.8705 11.8064L79.5791 7.69141C78.408 6.98373 77.1331 6.46405 75.801 6.15128C74.3611 5.78822 72.8822 5.60235 71.3972 5.5978C69.5013 5.53638 67.6142 5.88098 65.8624 6.60851C64.5283 7.14963 63.3821 8.06993 62.5655 9.2556C61.8546 10.3761 61.4943 11.6832 61.5307 13.0097C61.4854 14.0937 61.7437 15.1689 62.2767 16.114C62.7459 16.9285 63.4173 17.6082 64.226 18.0873C65.0704 18.6058 65.9757 19.018 66.9212 19.3146C67.8838 19.6033 68.8704 19.868 69.833 20.0846C70.7956 20.3012 71.686 20.5178 72.5042 20.7584C73.212 20.9408 73.8807 21.2507 74.4774 21.6729C74.7142 21.8418 74.9059 22.066 75.0359 22.3261C75.166 22.5862 75.2304 22.8742 75.2234 23.1649C75.2211 23.6412 75.0507 24.1014 74.7421 24.4644C74.3431 24.8893 73.8355 25.1972 73.2742 25.3547C72.4309 25.6024 71.5539 25.716 70.6753 25.6917C69.2459 25.7006 67.8242 25.4813 66.464 25.0419C65.1841 24.6478 63.9741 24.055 62.8784 23.2852L61.0254 27.3762C62.2929 28.2923 63.7216 28.9617 65.2367 29.3495C67.0034 29.8648 68.8349 30.1241 70.6753 30.1195C72.5788 30.1785 74.4732 29.834 76.2341 29.1088C77.5829 28.5112 78.7345 27.5432 79.5551 26.3173Z" fill="#338F51"/>
<path d="M89.0394 29.59V19.9161H99.7241V29.59H105.163V6.00684H99.7241V15.3198H89.0394V6.00684H83.5527V29.59H89.0394Z" fill="#338F51"/>
<path d="M128.191 29.59V25.2103H115.34V19.7477H126.29V15.4642H115.34V10.3866H127.758V6.00684H109.926V29.59H128.191Z" fill="#338F51"/>
<path d="M143.882 29.5917C146.352 29.7612 148.815 29.1645 150.933 27.8831C151.716 27.3568 152.348 26.6369 152.77 25.7935C153.192 24.9501 153.388 24.0119 153.34 23.0702C153.393 21.8674 153.069 20.6781 152.413 19.6685C151.757 18.6588 150.802 17.8794 149.682 17.4391C149.465 17.4391 149.201 17.2947 148.984 17.2225C149.866 16.8123 150.634 16.1927 151.222 15.4177C151.84 14.4574 152.159 13.3349 152.136 12.193C152.157 11.3243 151.964 10.4637 151.574 9.68733C151.184 8.91092 150.608 8.24251 149.898 7.74112C147.906 6.47819 145.561 5.88775 143.209 6.0566H131.682V29.6398L143.882 29.5917ZM142.535 10.1235C143.596 10.0587 144.655 10.2921 145.591 10.7973C145.931 11.0269 146.207 11.3399 146.393 11.7063C146.578 12.0728 146.667 12.4806 146.65 12.8909C146.667 13.3012 146.578 13.709 146.393 14.0755C146.207 14.442 145.931 14.7549 145.591 14.9845C144.658 15.4993 143.599 15.7411 142.535 15.6824H137.168V10.1235H142.535ZM137.168 25.4767V19.653H143.569C144.688 19.5894 145.802 19.8306 146.794 20.3509C147.166 20.587 147.465 20.9205 147.661 21.3151C147.856 21.7097 147.939 22.1503 147.901 22.5889C147.93 23.0197 147.842 23.4502 147.648 23.8355C147.453 24.2208 147.158 24.5466 146.794 24.7788C145.809 25.2949 144.704 25.5359 143.594 25.4767H137.168Z" fill="#338F51"/>
<path d="M159.111 29.59L161.229 24.5365H172.154L174.248 29.59H179.975L169.411 6.00684H163.996L153.504 29.59H159.111ZM162.937 20.3974L166.667 11.3973L170.397 20.3974H162.937Z" fill="#338F51"/>
<path d="M73.6389 38.2305V44.8723H66.0104V38.2305H62.0879V55.0756H66.0104V48.1691H73.6389V55.0756H77.5373V38.2305H73.6389Z" fill="#338F51"/>
<path d="M93.0081 52.0427C93.6132 51.0002 93.9056 49.8056 93.8503 48.6015C93.8835 47.4052 93.578 46.2239 92.9692 45.1936C92.3604 44.1633 91.473 43.3259 90.4091 42.7779C89.2819 42.2394 88.0486 41.96 86.7994 41.96C85.5503 41.96 84.3169 42.2394 83.1898 42.7779C82.1259 43.3259 81.2384 44.1633 80.6296 45.1936C80.0208 46.2239 79.7154 47.4052 79.7485 48.6015C79.7284 49.7921 80.0395 50.9649 80.6471 51.989C81.2548 53.0131 82.1351 53.8481 83.1898 54.401C84.3124 54.9549 85.5475 55.2431 86.7994 55.2431C88.0513 55.2431 89.2864 54.9549 90.4091 54.401C91.4761 53.8692 92.3754 53.0531 93.0081 52.0427ZM85.139 51.7539C84.6325 51.4714 84.2219 51.044 83.9598 50.5266C83.6402 49.9365 83.4824 49.2723 83.5026 48.6015C83.4789 47.9303 83.6369 47.2652 83.9598 46.6763C84.2359 46.169 84.6431 45.7451 85.139 45.449C85.66 45.1809 86.2375 45.0411 86.8235 45.0411C87.4095 45.0411 87.987 45.1809 88.508 45.449C88.9989 45.7513 89.4048 46.1737 89.6872 46.6763C89.9903 47.2717 90.1392 47.9336 90.1203 48.6015C90.1362 49.269 89.9874 49.9302 89.6872 50.5266C89.4183 51.0391 89.0093 51.4647 88.508 51.7539C87.9874 52.0485 87.3974 52.198 86.7994 52.1871C86.2174 52.1918 85.6445 52.0423 85.139 51.7539Z" fill="#338F51"/>
<path d="M113.923 48.2397V55.074H117.677V47.6621C117.724 46.5402 117.493 45.4239 117.003 44.4134C116.601 43.6065 115.952 42.9489 115.15 42.5364C114.302 42.1012 113.36 41.8782 112.407 41.8867C111.245 41.8574 110.099 42.1668 109.11 42.7771C108.589 43.1191 108.132 43.551 107.762 44.0525C107.461 43.5508 107.059 43.1167 106.583 42.7771C105.661 42.1755 104.579 41.8653 103.479 41.8867C102.498 41.8696 101.53 42.1015 100.663 42.5605C100.197 42.8307 99.7811 43.181 99.4358 43.5952V42.1273H95.8262V55.074H99.5802V48.5766C99.5553 47.916 99.6787 47.2582 99.9412 46.6514C100.164 46.1928 100.515 45.8084 100.952 45.5445C101.403 45.3012 101.908 45.1769 102.42 45.1835C102.764 45.1679 103.108 45.2265 103.427 45.3552C103.747 45.4839 104.035 45.6797 104.273 45.9295C104.762 46.6313 104.984 47.4848 104.898 48.3359V55.1703H108.653V48.6729C108.628 48.0122 108.751 47.3544 109.014 46.7477C109.218 46.284 109.563 45.8967 110 45.6407C110.458 45.3944 110.972 45.2701 111.492 45.2798C111.83 45.2596 112.168 45.3163 112.48 45.4455C112.793 45.5747 113.072 45.7731 113.297 46.0258C113.743 46.675 113.963 47.453 113.923 48.2397Z" fill="#338F51"/>
<path d="M132.353 53.1736L130.356 51.0078C129.942 51.4025 129.462 51.7203 128.936 51.9463C128.36 52.1651 127.748 52.2713 127.131 52.2591C126.433 52.2744 125.741 52.1261 125.11 51.8259C124.563 51.5599 124.103 51.1423 123.787 50.6227C123.617 50.3225 123.495 49.9978 123.426 49.6601H133.196C133.209 49.4839 133.209 49.307 133.196 49.1307C133.207 48.9705 133.207 48.8097 133.196 48.6494C133.251 47.3994 132.959 46.1585 132.353 45.0638C131.8 44.0468 130.964 43.2112 129.947 42.6574C128.881 42.1202 127.699 41.8556 126.506 41.8873C125.275 41.872 124.06 42.1613 122.968 42.7296C121.956 43.2899 121.122 44.1238 120.562 45.136C119.953 46.179 119.645 47.37 119.671 48.5772C119.647 49.7745 119.962 50.9543 120.58 51.9804C121.197 53.0065 122.092 53.8372 123.161 54.3768C124.245 54.8888 125.421 55.1801 126.619 55.2338C127.817 55.2876 129.014 55.1026 130.14 54.6896C130.99 54.3726 131.75 53.8521 132.353 53.1736ZM124.869 45.1842C125.388 44.9083 125.967 44.7676 126.554 44.7751C127.141 44.7644 127.721 44.9053 128.238 45.1842C128.719 45.4633 129.111 45.8719 129.369 46.3633C129.56 46.7039 129.675 47.0814 129.706 47.4703H123.353C123.411 47.0868 123.524 46.7139 123.69 46.3633C123.959 45.871 124.359 45.4628 124.845 45.1842H124.869Z" fill="#338F51"/>
<path d="M147.493 52.0427C148.123 51.0078 148.441 49.8127 148.407 48.6015C148.44 47.4052 148.135 46.2239 147.526 45.1936C146.917 44.1633 146.03 43.3259 144.966 42.7779C143.839 42.2394 142.606 41.96 141.356 41.96C140.107 41.96 138.874 42.2394 137.747 42.7779C136.7 43.3336 135.826 44.166 135.22 45.1843C134.603 46.2338 134.287 47.4325 134.305 48.6496C134.287 49.8514 134.604 51.0347 135.22 52.0667C135.821 53.089 136.696 53.9226 137.747 54.4732C138.869 55.0271 140.104 55.3153 141.356 55.3153C142.608 55.3153 143.843 55.0271 144.966 54.4732C146.016 53.9109 146.89 53.0699 147.493 52.0427ZM139.576 51.7539C139.069 51.4714 138.658 51.044 138.396 50.5266C138.077 49.9365 137.919 49.2723 137.939 48.6015C137.916 47.9303 138.073 47.2652 138.396 46.6763C138.672 46.169 139.08 45.7451 139.576 45.449C140.097 45.1809 140.674 45.0411 141.26 45.0411C141.846 45.0411 142.424 45.1809 142.945 45.449C143.436 45.7513 143.841 46.1737 144.124 46.6763C144.427 47.2717 144.576 47.9336 144.557 48.6015C144.573 49.269 144.424 49.9302 144.124 50.5266C143.855 51.0391 143.446 51.4647 142.945 51.7539C142.424 52.0485 141.834 52.198 141.236 52.1871C140.654 52.1918 140.081 52.0423 139.576 51.7539Z" fill="#338F51"/>
<path d="M160.704 38.2305H156.781V55.0756H160.704V48.1691H168.332V55.0756H172.231V38.2305H168.332V44.8723H160.704V38.2305Z" fill="#338F51"/>
<path d="M183.298 53.3655V55.0741H186.811V47.6863C186.891 46.8936 186.797 46.093 186.535 45.3406C186.273 44.5882 185.85 43.9021 185.295 43.3306C183.933 42.2534 182.212 41.7369 180.482 41.8867C179.459 41.8813 178.439 42.0108 177.45 42.2718C176.537 42.512 175.674 42.9111 174.899 43.4509L176.223 46.074C176.747 45.6828 177.332 45.3818 177.955 45.1836C178.608 44.9724 179.291 44.8668 179.977 44.8707C180.789 44.8038 181.596 45.0443 182.239 45.5445C182.488 45.7868 182.681 46.08 182.805 46.404C182.93 46.728 182.983 47.0751 182.961 47.4216H180.097C179.002 47.3886 177.91 47.5516 176.873 47.9029C176.147 48.1449 175.522 48.6183 175.092 49.2505C174.707 49.8538 174.506 50.5563 174.514 51.2719C174.502 51.9841 174.712 52.6824 175.116 53.2692C175.529 53.8796 176.104 54.3629 176.776 54.665C177.582 55.0387 178.463 55.22 179.351 55.1944C180.327 55.2417 181.296 55.0078 182.143 54.5206C182.613 54.2317 183.009 53.8359 183.298 53.3655ZM178.75 52.3067C178.565 52.1833 178.414 52.0145 178.313 51.8165C178.212 51.6185 178.163 51.3978 178.172 51.1756C178.169 50.9687 178.213 50.7638 178.301 50.5763C178.388 50.3887 178.517 50.2234 178.677 50.0927C179.212 49.7467 179.849 49.5939 180.482 49.6596H183.057V50.9831C182.876 51.5381 182.5 52.0085 181.998 52.3067C181.469 52.601 180.871 52.7504 180.266 52.7398C179.726 52.7698 179.192 52.6172 178.75 52.3067Z" fill="#338F51"/>
<path d="M193.356 37.2178H189.602V55.0736H193.356V37.2178Z" fill="#338F51"/>
<path d="M200.002 37.2178H196.248V55.0736H200.002V37.2178Z" fill="#338F51"/>
<path d="M0 0.978516V57.0247H48.899V0.978516H0ZM2.9118 38.7838V6.39303C2.91419 5.5888 3.2042 4.81196 3.7294 4.2029C4.2546 3.59385 4.98035 3.19276 5.77548 3.07213H6.28083H42.6904C43.5459 3.12723 44.3482 3.50637 44.9339 4.13231C45.5196 4.75825 45.8446 5.58392 45.8429 6.44115V38.7838C45.8446 39.6411 45.5196 40.4667 44.9339 41.0927C44.3482 41.7186 43.5459 42.0978 42.6904 42.1529H6.28083H5.77548C5.09104 42.051 4.45503 41.7395 3.95508 41.2611C3.45513 40.7827 3.11585 40.161 2.984 39.4817C2.93443 39.2524 2.91022 39.0184 2.9118 38.7838ZM2.9118 54.3054V44.8481H45.8429V54.3295L2.9118 54.3054Z" fill="#338F51"/>
<path d="M5.63086 4.80469V40.2036H43.2677V37.388H8.47047V7.6443H43.2677V4.80469H5.63086Z" fill="#F15C4B"/>
<path d="M25.5314 12.699V9.85938H20.2853V12.699H21.4886V23.1911H18.6971V17.8007H13.5232V12.699H18.6971V9.85938H10.6836V20.6403H15.8575V32.7928H13.5232V25.3088H10.6836V35.6324H18.6971V26.0307H21.4886V32.7928H20.2853V35.6324H25.5314V32.7928H24.3282V26.0307H25.5314V23.1911H24.3282V12.699H25.5314Z" fill="#F15C4B"/>
<path d="M27.3867 35.6324H37.8066V25.2607L35.8334 23.5761L37.6623 21.9879V21.8676V12.699H40.3094V21.5307L37.9029 23.5761L40.3094 25.5976V32.8169H39.1783V35.6324H43.3174V9.85938H27.4348L27.3867 35.6324ZM34.967 25.5735V32.7928H30.1541V12.699H34.967V21.5788L32.5606 23.5761L34.967 25.5735Z" fill="#F15C4B"/>
<path d="M8.56605 46.34C8.92615 46.3046 9.28885 46.3046 9.64895 46.34C9.94726 46.4144 10.2317 46.5362 10.4912 46.701V48.3855C10.21 48.2679 9.92043 48.1713 9.62489 48.0967C9.33757 47.9694 9.02426 47.9117 8.71044 47.9283C8.54397 47.8918 8.37156 47.8918 8.20508 47.9283C8.13711 47.9398 8.07548 47.9752 8.03134 48.0282C7.98721 48.0811 7.96348 48.1481 7.96444 48.2171C7.96544 48.2973 7.99149 48.3752 8.03895 48.44C8.08641 48.5047 8.15291 48.5529 8.22915 48.578L8.90295 48.8427L9.62489 49.1074C10.0121 49.2312 10.3495 49.4758 10.5875 49.8053C10.7895 50.0901 10.898 50.4307 10.898 50.7799C10.898 51.1291 10.7895 51.4697 10.5875 51.7545C10.3517 52.0717 10.0362 52.3208 9.67302 52.4765C9.25589 52.6585 8.80452 52.7488 8.34947 52.7412C7.96835 52.7664 7.58572 52.7257 7.21844 52.6209C6.87734 52.5046 6.55354 52.3427 6.25586 52.1396V50.455C6.54488 50.6901 6.86991 50.877 7.21844 51.0085C7.53568 51.1531 7.88053 51.227 8.22915 51.2251C8.40473 51.2501 8.58298 51.2501 8.75857 51.2251C8.81834 51.2025 8.87045 51.1633 8.9088 51.1122C8.94714 51.061 8.97016 51.0001 8.97515 50.9363C8.96706 50.8861 8.9477 50.8384 8.91853 50.7967C8.88936 50.755 8.85112 50.7205 8.8067 50.6957C8.69029 50.6155 8.55959 50.5583 8.42166 50.5272L7.53128 50.2385C7.23078 50.159 6.95675 50.0012 6.73715 49.7812C6.53667 49.6024 6.39421 49.3678 6.32805 49.1074C6.29175 48.8682 6.29175 48.6248 6.32805 48.3855C6.30514 47.9919 6.41533 47.602 6.64089 47.2785C6.86802 46.9686 7.17607 46.7272 7.53128 46.5807C7.85951 46.4407 8.20972 46.3592 8.56605 46.34Z" fill="#338F51"/>
<path d="M14.7756 46.4609V48.8674H16.9895V46.4609H18.7222V52.6696H16.9895V50.4556H14.7756V52.6696H13.043V46.4609H14.7756Z" fill="#338F51"/>
<path d="M25.6293 48.8915V50.1909H23.2228V51.2016H26.0143V52.6696H21.418V46.4609H25.9421V47.9048H23.1506V48.8915H25.6293Z" fill="#338F51"/>
<path d="M31.0652 46.3156C31.5176 46.3116 31.9667 46.3932 32.3888 46.5562C32.7389 46.676 33.0478 46.893 33.2791 47.1819C33.4986 47.4438 33.6105 47.7792 33.592 48.1204C33.6062 48.409 33.5305 48.6949 33.3754 48.9386C33.2241 49.1703 33.0173 49.3606 32.7738 49.4921C32.9688 49.5563 33.1548 49.6453 33.3273 49.7568C33.4921 49.8613 33.6318 50.001 33.7364 50.1659C33.8298 50.3784 33.8789 50.6076 33.8808 50.8397C33.879 51.1965 33.7607 51.543 33.5438 51.8263C33.3028 52.1383 32.9887 52.3862 32.6294 52.5483C32.2095 52.7212 31.76 52.8111 31.3059 52.813H30.3433H29.3326L28.5625 52.6686V46.5562L29.7657 46.3878C30.1972 46.3397 30.631 46.3156 31.0652 46.3156ZM31.0652 47.8798C30.793 47.8565 30.5193 47.8565 30.247 47.8798V49.1071H31.2818C31.468 49.1074 31.6509 49.0576 31.8112 48.9627C31.8783 48.9068 31.9325 48.8369 31.9699 48.7579C32.0073 48.679 32.0271 48.5928 32.0278 48.5054C32.0251 48.4286 32.004 48.3536 31.9663 48.2866C31.9286 48.2196 31.8754 48.1626 31.8112 48.1204C31.7164 48.0363 31.606 47.9718 31.4863 47.9305C31.3665 47.8892 31.2398 47.872 31.1133 47.8798H31.0652ZM30.247 51.1766H30.7042H31.2818C31.4942 51.178 31.7027 51.1197 31.8834 51.0081C31.963 50.9692 32.0287 50.9068 32.0718 50.8294C32.1148 50.7519 32.1331 50.6631 32.124 50.575C32.1282 50.4907 32.1046 50.4073 32.0568 50.3377C32.0089 50.2682 31.9396 50.2162 31.8593 50.19C31.6574 50.0924 31.433 50.0508 31.2096 50.0696H30.3914L30.247 51.1766Z" fill="#338F51"/>
<path d="M39.0327 46.3887L41.8964 52.6695H39.8991L39.5862 51.8513H37.6129L37.3242 52.6695H35.3027L38.1664 46.3887H39.0327ZM38.5033 49.108L38.022 50.3834H38.9605L38.5033 49.108Z" fill="#338F51"/>
</g>
<defs>
<clipPath id="clip0_817_1133">
<rect width="200" height="56.0462" fill="white" transform="translate(0 0.976562)"/>
</clipPath>
</defs>
</svg>
