<svg width="47" height="59" viewBox="0 0 47 59" fill="none" xmlns="http://www.w3.org/2000/svg">
<g clip-path="url(#clip0_652_1349)">
<path d="M0.382812 0.169922V58.2777H46.4683V0.169922H0.382812ZM3.13611 39.3601V5.77761C3.13569 4.94338 3.40739 4.13665 3.90185 3.50402C4.3963 2.87139 5.08069 2.45482 5.83067 2.33002C5.98816 2.30422 6.14715 2.29115 6.30638 2.29089H40.4132C40.4843 2.29089 40.5555 2.29089 40.625 2.29908C41.4275 2.35752 42.1797 2.74949 42.7291 3.39547C43.2785 4.04145 43.584 4.89308 43.5835 5.77761V39.3601C43.5846 40.2454 43.2796 41.098 42.7302 41.745C42.1807 42.392 41.4281 42.7849 40.625 42.8441C40.5555 42.8486 40.4843 42.8513 40.4132 42.8513H6.30638C6.14717 42.8514 5.98818 42.8386 5.83067 42.8131C5.18954 42.7052 4.59379 42.3841 4.12349 41.8929C3.65318 41.4016 3.33085 40.7639 3.19981 40.0652C3.15724 39.8331 3.1359 39.5969 3.13611 39.3601ZM3.13611 55.4652V45.6566H43.5835V55.468L3.13611 55.4652Z" fill="#42834C"/>
<path d="M5.68555 4.14355V40.8433H41.1715V37.9043H8.35777V7.08252H41.1715V4.14355H5.68555Z" fill="#42834C"/>
<path d="M24.4542 12.3237V9.38477H19.5085V12.3237H20.6329V23.2088H18.0127V17.6184H13.1175V12.3237H18.0127V9.38477H10.4453V20.5574H15.3405V33.1649H13.1175V25.3917H10.4453V36.1039H18.0127V26.1478H20.6329V33.1649H19.5085V36.1039H24.4542V33.1649H23.3059V26.1478H24.4542V23.2088H23.3059V12.3237H24.4542Z" fill="#42834C"/>
<path d="M26.1953 36.1018H36.0089V25.336L34.1491 23.5844L35.8865 21.9466L36.0064 21.8329V12.3208H38.4942V21.4844L36.2654 23.5844L38.4942 25.6844V33.162H37.4186V36.1018H41.1697V9.38184H26.1953V36.1018ZM33.34 25.6581V33.162H28.8634V12.3254H33.3367V21.5153L31.1369 23.5899L33.34 25.6581Z" fill="#42834C"/>
<path d="M8.45596 47.1895C8.79881 47.1895 9.14034 47.2363 9.47273 47.3287C9.75938 47.3992 10.0326 47.5243 10.2802 47.6981V49.4351C10.039 49.2815 9.79049 49.1424 9.5356 49.0184C9.26218 48.8919 8.96765 48.8299 8.67106 48.8364C8.50145 48.8325 8.33278 48.8652 8.17467 48.9329C8.11336 48.9537 8.05984 48.9958 8.02211 49.0529C7.98438 49.11 7.96447 49.179 7.96536 49.2495C7.96536 49.4097 8.04975 49.531 8.21852 49.6135C8.38729 49.696 8.59384 49.787 8.83818 49.8864L9.46693 50.1458C9.89162 50.3277 10.1928 50.5704 10.3704 50.8737C10.54 51.1463 10.6342 51.467 10.6417 51.7972C10.6474 52.1905 10.5338 52.5746 10.3191 52.8891C10.0913 53.2169 9.79076 53.4748 9.44625 53.6379C9.05851 53.8252 8.63863 53.9183 8.21521 53.9109C7.86111 53.9099 7.50984 53.8416 7.17693 53.7089C6.85793 53.5885 6.55537 53.4207 6.27764 53.2103V51.4724C6.55501 51.7004 6.85709 51.8896 7.17693 52.0356C7.48484 52.179 7.81551 52.2538 8.14985 52.2558C8.31842 52.2623 8.48665 52.2349 8.64624 52.1748C8.70143 52.1567 8.74964 52.119 8.78344 52.0677C8.81723 52.0164 8.83472 51.9543 8.83321 51.8909C8.83106 51.8399 8.81718 51.7902 8.79288 51.7466C8.76857 51.703 8.73464 51.6669 8.69422 51.6416C8.57821 51.5602 8.45154 51.4989 8.31862 51.4597L7.49131 51.1712C7.20789 51.0827 6.94761 50.9214 6.73184 50.7008C6.55714 50.5164 6.42668 50.2872 6.3521 50.0338C6.2827 49.79 6.24728 49.536 6.24703 49.2805C6.23466 48.8704 6.34512 48.4673 6.56141 48.1331C6.77274 47.8213 7.05612 47.5775 7.3821 47.427C7.72149 47.2678 8.087 47.187 8.45596 47.1895Z" fill="#42834C"/>
<path d="M14.3003 47.333V49.8807H16.395V47.333H18.0273V53.7642H16.395V51.4612H14.3003V53.7642H12.668V47.333H14.3003Z" fill="#42834C"/>
<path d="M24.5338 49.8389V51.1828H22.2124V52.2292H24.8399V53.7642H20.5801V47.333H24.8399V48.8207H22.2124V49.8389H24.5338Z" fill="#42834C"/>
<path d="M29.6585 47.1786C30.0885 47.1683 30.5165 47.2483 30.9193 47.4143C31.247 47.547 31.5364 47.7738 31.7574 48.0712C31.9568 48.3499 32.0632 48.6956 32.0585 49.0503C32.0658 49.3493 31.9911 49.6438 31.8442 49.8956C31.7038 50.1307 31.5136 50.3249 31.2899 50.4615C31.4677 50.5307 31.6376 50.6223 31.7962 50.7345C31.9523 50.8452 32.0824 50.9948 32.176 51.1712C32.2798 51.3866 32.3294 51.6284 32.3199 51.8719C32.3181 52.2343 32.2079 52.586 32.0064 52.8727C31.7795 53.1978 31.4823 53.4552 31.1418 53.6216C30.747 53.8167 30.3179 53.9133 29.8851 53.9046C29.6171 53.9046 29.3173 53.89 28.9859 53.8609C28.6544 53.8318 28.3389 53.7951 28.0394 53.7508C27.7391 53.7062 27.4967 53.6598 27.3105 53.6161V47.4288C27.6646 47.3524 28.04 47.2917 28.4365 47.2469C28.8425 47.2012 29.2504 47.1784 29.6585 47.1786ZM29.7189 48.801C29.4582 48.7971 29.1978 48.8231 28.942 48.8783V49.982H29.7627C29.9363 49.988 30.1072 49.9343 30.2516 49.8282C30.318 49.7779 30.3713 49.7095 30.4066 49.6298C30.4418 49.5501 30.4577 49.4617 30.4527 49.3733C30.4534 49.2912 30.4352 49.2102 30.4 49.1379C30.3647 49.0655 30.3134 49.0041 30.2508 48.9593C30.0929 48.8467 29.9069 48.7913 29.7189 48.801ZM28.942 52.2094C29.084 52.258 29.2305 52.2886 29.3788 52.3004C29.5443 52.3159 29.6783 52.3241 29.7718 52.3241C29.9742 52.3338 30.1749 52.2805 30.3509 52.1703C30.4224 52.1242 30.4809 52.0574 30.5202 51.9771C30.5594 51.8969 30.5779 51.8063 30.5735 51.7154C30.5761 51.6261 30.5531 51.5382 30.5076 51.4642C30.4622 51.3901 30.3966 51.3338 30.3203 51.3032C30.1271 51.2146 29.919 51.1721 29.7098 51.1785H28.9412L28.942 52.2094Z" fill="#42834C"/>
<path d="M37.1764 47.2343L39.8825 53.7619H37.9797L37.6918 52.8975H35.8411L35.5532 53.7619H33.6504L36.3557 47.2334L37.1764 47.2343ZM36.7627 50.1341L36.3176 51.459H37.2078L36.7627 50.1341Z" fill="#42834C"/>
</g>
<defs>
<clipPath id="clip0_652_1349">
<rect width="46.0855" height="58.1078" fill="white" transform="translate(0.382812 0.168945)"/>
</clipPath>
</defs>
</svg>
