<svg width="46" height="46" viewBox="0 0 46 46" fill="none" xmlns="http://www.w3.org/2000/svg">
<rect x="0.853516" y="0.239258" width="45.0836" height="45.0836" rx="10.0186" fill="#74CD88"/>
<path d="M10.7562 16.0881V16.159L10.8111 16.204L21.2554 24.7774C21.2554 24.7775 21.2554 24.7775 21.2554 24.7775C22.5641 25.8522 24.442 25.8522 25.7507 24.7774L25.6586 24.6653L25.7507 24.7774L36.189 16.204L36.2437 16.159V16.0881V14.75C36.2437 14.1343 35.7407 13.6312 35.125 13.6312H11.875C11.2593 13.6312 10.7562 14.1343 10.7562 14.75V16.0881ZM11.0014 19.7321L10.7562 19.5308V19.848V30.25C10.7562 30.8657 11.2593 31.3687 11.875 31.3687H35.125C35.7407 31.3687 36.2437 30.8657 36.2437 30.25V19.848V19.5308L35.9986 19.7321L27.401 26.7918C27.4009 26.7919 27.4009 26.7919 27.4009 26.7919C25.1311 28.6538 21.8627 28.6536 19.5992 26.792L19.5991 26.7919L11.0014 19.7321ZM8.15 14.75C8.15 12.6955 9.82054 11.025 11.875 11.025H35.125C37.1795 11.025 38.85 12.6955 38.85 14.75V30.25C38.85 32.3045 37.1795 33.975 35.125 33.975H11.875C9.82054 33.975 8.15 32.3045 8.15 30.25V14.75Z" fill="white" stroke="#74CD88" stroke-width="0.3"/>
</svg>
