<svg width="49" height="49" viewBox="0 0 49 49" fill="none" xmlns="http://www.w3.org/2000/svg">
<path fill-rule="evenodd" clip-rule="evenodd" d="M5.49219 43.4767L8.19119 33.6235C6.52611 30.7401 5.65048 27.468 5.65148 24.1168C5.65649 13.6324 14.1883 5.10254 24.6738 5.10254C29.7622 5.10454 34.5371 7.08522 38.1287 10.6789C41.7194 14.2736 43.6971 19.0504 43.6951 24.1318C43.6911 34.6163 35.1572 43.1471 24.6738 43.1471H24.6658C21.4829 43.1461 18.354 42.3476 15.5759 40.8318L5.49219 43.4767Z" fill="white"/>
<path fill-rule="evenodd" clip-rule="evenodd" d="M5.49073 43.9776C5.35848 43.9776 5.23024 43.9255 5.13507 43.8293C5.00983 43.7021 4.96074 43.5168 5.00783 43.3454L7.65173 33.6915C6.01269 30.7801 5.14809 27.474 5.15009 24.1178C5.1541 13.3558 13.9113 4.60156 24.6723 4.60156C29.892 4.60357 34.7961 6.63634 38.4819 10.3252C42.1678 14.015 44.1965 18.9181 44.1945 24.1318C44.1905 34.8928 35.4323 43.648 24.6723 43.648C21.4774 43.647 18.3165 42.8585 15.5113 41.3668L5.61796 43.9606C5.57588 43.9726 5.53381 43.9776 5.49073 43.9776Z" fill="white"/>
<path fill-rule="evenodd" clip-rule="evenodd" d="M24.6741 5.10244C29.7625 5.10445 34.5374 7.08512 38.1291 10.6788C41.7197 14.2735 43.6974 19.0503 43.6954 24.1317C43.6914 34.6162 35.1575 43.147 24.6741 43.147H24.6661C21.4832 43.146 18.3544 42.3475 15.5762 40.8317L5.49251 43.4766L8.19151 33.6234C6.52642 30.74 5.6508 27.4679 5.6518 24.1167C5.65681 13.6323 14.1886 5.10244 24.6741 5.10244ZM24.6741 4.10059C13.6376 4.10059 4.65495 13.0792 4.64994 24.1167C4.64894 27.49 5.50052 30.8141 7.11552 33.7566L4.52571 43.2132C4.43154 43.5588 4.52772 43.9275 4.78018 44.1819C4.97054 44.3743 5.22801 44.4795 5.49251 44.4795C5.57766 44.4795 5.66282 44.4685 5.74698 44.4464L15.452 41.9017C18.2852 43.3724 21.4611 44.1489 24.6661 44.1499C35.7106 44.1499 44.6932 35.1702 44.6982 24.1328C44.7002 18.7838 42.6194 13.7545 38.8394 9.97148C35.0574 6.18746 30.027 4.10259 24.6741 4.10059Z" fill="#CFD8DC"/>
<path fill-rule="evenodd" clip-rule="evenodd" d="M35.8554 12.9491C32.8699 9.96151 28.9015 8.31545 24.6777 8.31445C15.9575 8.31445 8.86534 15.4036 8.86133 24.1178C8.86033 27.1043 9.69588 30.0117 11.2788 32.5294L11.6555 33.1275L10.0575 38.9593L16.0416 37.3904L16.6197 37.733C19.0462 39.1737 21.8294 39.9351 24.6666 39.9361H24.6727C33.3868 39.9361 40.479 32.846 40.482 24.1308C40.483 19.908 38.8409 15.9366 35.8554 12.9491Z" fill="#40C351"/>
<path fill-rule="evenodd" clip-rule="evenodd" d="M19.918 16.1685C19.5623 15.377 19.1876 15.361 18.848 15.347C18.5705 15.335 18.2539 15.336 17.9373 15.336C17.6207 15.336 17.1058 15.4552 16.6699 15.9311C16.2341 16.4069 15.0059 17.5561 15.0059 19.8944C15.0059 22.2328 16.709 24.4929 16.9465 24.8095C17.1839 25.1261 20.2346 30.0783 25.0655 31.9838C29.08 33.5668 29.8975 33.2522 30.7691 33.173C31.6407 33.0939 33.5813 32.0239 33.9771 30.9139C34.3728 29.8038 34.3728 28.853 34.2546 28.6547C34.1353 28.4563 33.8188 28.3381 33.3439 28.0996C32.869 27.8612 30.5317 26.7121 30.0959 26.5538C29.66 26.3955 29.3435 26.3163 29.0259 26.7922C28.7093 27.2671 27.7986 28.3381 27.5211 28.6547C27.2436 28.9723 26.966 29.0123 26.4912 28.7739C26.0163 28.5354 24.4854 28.0345 22.6691 26.4155C21.2565 25.1562 20.3027 23.6003 20.0252 23.1244C19.7477 22.6495 19.9951 22.392 20.2336 22.1546C20.447 21.9412 20.7084 21.5996 20.9469 21.3221C21.1843 21.0445 21.2635 20.8462 21.4218 20.5296C21.5801 20.212 21.5009 19.9345 21.3817 19.697C21.2645 19.4586 20.3408 17.1082 19.918 16.1685Z" fill="white"/>
</svg>
