<?xml version="1.0" encoding="UTF-8"?>
<svg xmlns="http://www.w3.org/2000/svg" xmlns:xlink="http://www.w3.org/1999/xlink" width="25px" height="32px" viewBox="0 0 25 31" version="1.1">
<defs>
<clipPath id="clip1">
  <path d="M 0.203125 0.0898438 L 24.71875 0.0898438 L 24.71875 30.621094 L 0.203125 30.621094 Z M 0.203125 0.0898438 "/>
</clipPath>
</defs>
<g id="surface1">
<g clip-path="url(#clip1)" clip-rule="nonzero">
<path style=" stroke:none;fill-rule:nonzero;fill:rgb(25.882353%,51.372549%,29.803922%);fill-opacity:1;" d="M 0.203125 0.0898438 L 0.203125 30.621094 L 24.71875 30.621094 L 24.71875 0.0898438 Z M 1.667969 20.679688 L 1.667969 3.035156 C 1.667969 2.597656 1.8125 2.171875 2.074219 1.839844 C 2.339844 1.507812 2.703125 1.289062 3.101562 1.222656 C 3.183594 1.210938 3.269531 1.203125 3.355469 1.203125 L 21.496094 1.203125 C 21.535156 1.203125 21.570312 1.203125 21.609375 1.207031 C 22.035156 1.238281 22.4375 1.445312 22.726562 1.785156 C 23.019531 2.125 23.183594 2.570312 23.183594 3.035156 L 23.183594 20.679688 C 23.183594 21.144531 23.019531 21.59375 22.730469 21.933594 C 22.4375 22.273438 22.035156 22.480469 21.609375 22.511719 C 21.570312 22.511719 21.535156 22.515625 21.496094 22.515625 L 3.355469 22.515625 C 3.269531 22.515625 3.183594 22.507812 3.101562 22.496094 C 2.761719 22.4375 2.445312 22.269531 2.191406 22.011719 C 1.941406 21.753906 1.773438 21.417969 1.703125 21.050781 C 1.679688 20.929688 1.667969 20.804688 1.667969 20.679688 Z M 1.667969 29.144531 L 1.667969 23.988281 L 23.183594 23.988281 L 23.183594 29.144531 Z M 1.667969 29.144531 "/>
</g>
<path style=" stroke:none;fill-rule:nonzero;fill:rgb(25.882353%,51.372549%,29.803922%);fill-opacity:1;" d="M 3.023438 2.175781 L 3.023438 21.460938 L 21.898438 21.460938 L 21.898438 19.914062 L 4.445312 19.914062 L 4.445312 3.722656 L 21.898438 3.722656 L 21.898438 2.175781 Z M 3.023438 2.175781 "/>
<path style=" stroke:none;fill-rule:nonzero;fill:rgb(25.882353%,51.372549%,29.803922%);fill-opacity:1;" d="M 13.007812 6.476562 L 13.007812 4.929688 L 10.375 4.929688 L 10.375 6.476562 L 10.976562 6.476562 L 10.976562 12.195312 L 9.582031 12.195312 L 9.582031 9.257812 L 6.976562 9.257812 L 6.976562 6.476562 L 9.582031 6.476562 L 9.582031 4.929688 L 5.554688 4.929688 L 5.554688 10.800781 L 8.160156 10.800781 L 8.160156 17.425781 L 6.976562 17.425781 L 6.976562 13.339844 L 5.554688 13.339844 L 5.554688 18.96875 L 9.582031 18.96875 L 9.582031 13.738281 L 10.976562 13.738281 L 10.976562 17.425781 L 10.375 17.425781 L 10.375 18.96875 L 13.007812 18.96875 L 13.007812 17.425781 L 12.398438 17.425781 L 12.398438 13.738281 L 13.007812 13.738281 L 13.007812 12.195312 L 12.398438 12.195312 L 12.398438 6.476562 Z M 13.007812 6.476562 "/>
<path style=" stroke:none;fill-rule:nonzero;fill:rgb(25.882353%,51.372549%,29.803922%);fill-opacity:1;" d="M 13.933594 18.96875 L 19.152344 18.96875 L 19.152344 13.3125 L 18.164062 12.390625 L 19.089844 11.53125 L 19.152344 11.472656 L 19.152344 6.472656 L 20.476562 6.472656 L 20.476562 11.289062 L 19.289062 12.390625 L 20.476562 13.496094 L 20.476562 17.425781 L 19.902344 17.425781 L 19.902344 18.96875 L 21.898438 18.96875 L 21.898438 4.929688 L 13.933594 4.929688 Z M 17.734375 13.480469 L 17.734375 17.425781 L 15.351562 17.425781 L 15.351562 6.476562 L 17.730469 6.476562 L 17.730469 11.304688 L 16.5625 12.394531 Z M 17.734375 13.480469 "/>
<path style=" stroke:none;fill-rule:nonzero;fill:rgb(25.882353%,51.372549%,29.803922%);fill-opacity:1;" d="M 4.496094 24.792969 C 4.679688 24.792969 4.863281 24.820312 5.039062 24.867188 C 5.191406 24.90625 5.335938 24.96875 5.46875 25.0625 L 5.46875 25.972656 C 5.339844 25.894531 5.207031 25.820312 5.070312 25.753906 C 4.925781 25.6875 4.769531 25.65625 4.613281 25.660156 C 4.523438 25.65625 4.433594 25.675781 4.347656 25.710938 C 4.316406 25.722656 4.289062 25.742188 4.265625 25.773438 C 4.246094 25.804688 4.238281 25.839844 4.238281 25.875 C 4.238281 25.960938 4.28125 26.023438 4.371094 26.066406 C 4.460938 26.113281 4.570312 26.160156 4.699219 26.210938 L 5.035156 26.347656 C 5.261719 26.445312 5.421875 26.570312 5.515625 26.730469 C 5.605469 26.875 5.65625 27.042969 5.660156 27.214844 C 5.664062 27.421875 5.601562 27.625 5.488281 27.789062 C 5.367188 27.960938 5.207031 28.097656 5.023438 28.183594 C 4.816406 28.28125 4.59375 28.328125 4.371094 28.324219 C 4.179688 28.324219 3.996094 28.289062 3.816406 28.21875 C 3.648438 28.15625 3.488281 28.070312 3.339844 27.957031 L 3.339844 27.042969 C 3.488281 27.164062 3.648438 27.265625 3.816406 27.339844 C 3.980469 27.417969 4.15625 27.457031 4.335938 27.457031 C 4.425781 27.460938 4.515625 27.445312 4.597656 27.414062 C 4.628906 27.40625 4.652344 27.382812 4.671875 27.359375 C 4.691406 27.332031 4.699219 27.296875 4.699219 27.265625 C 4.699219 27.238281 4.691406 27.210938 4.675781 27.1875 C 4.664062 27.164062 4.644531 27.148438 4.625 27.132812 C 4.5625 27.089844 4.496094 27.058594 4.425781 27.039062 L 3.984375 26.886719 C 3.832031 26.839844 3.695312 26.753906 3.582031 26.640625 C 3.488281 26.542969 3.417969 26.421875 3.378906 26.289062 C 3.34375 26.160156 3.324219 26.027344 3.324219 25.894531 C 3.316406 25.675781 3.375 25.464844 3.488281 25.289062 C 3.601562 25.125 3.753906 25 3.925781 24.917969 C 4.105469 24.835938 4.300781 24.792969 4.496094 24.792969 Z M 4.496094 24.792969 "/>
<path style=" stroke:none;fill-rule:nonzero;fill:rgb(25.882353%,51.372549%,29.803922%);fill-opacity:1;" d="M 7.605469 24.871094 L 7.605469 26.207031 L 8.722656 26.207031 L 8.722656 24.871094 L 9.589844 24.871094 L 9.589844 28.25 L 8.722656 28.25 L 8.722656 27.039062 L 7.605469 27.039062 L 7.605469 28.25 L 6.738281 28.25 L 6.738281 24.871094 Z M 7.605469 24.871094 "/>
<path style=" stroke:none;fill-rule:nonzero;fill:rgb(25.882353%,51.372549%,29.803922%);fill-opacity:1;" d="M 13.050781 26.1875 L 13.050781 26.894531 L 11.816406 26.894531 L 11.816406 27.441406 L 13.210938 27.441406 L 13.210938 28.25 L 10.945312 28.25 L 10.945312 24.871094 L 13.210938 24.871094 L 13.210938 25.652344 L 11.816406 25.652344 L 11.816406 26.1875 Z M 13.050781 26.1875 "/>
<path style=" stroke:none;fill-rule:nonzero;fill:rgb(25.882353%,51.372549%,29.803922%);fill-opacity:1;" d="M 15.777344 24.789062 C 16.003906 24.785156 16.230469 24.824219 16.445312 24.914062 C 16.621094 24.980469 16.773438 25.101562 16.890625 25.257812 C 17 25.402344 17.054688 25.585938 17.050781 25.773438 C 17.054688 25.929688 17.015625 26.085938 16.9375 26.214844 C 16.863281 26.339844 16.761719 26.441406 16.644531 26.511719 C 16.738281 26.550781 16.828125 26.597656 16.914062 26.65625 C 16.996094 26.714844 17.066406 26.792969 17.113281 26.886719 C 17.171875 27 17.195312 27.125 17.191406 27.253906 C 17.191406 27.445312 17.132812 27.628906 17.023438 27.78125 C 16.902344 27.953125 16.746094 28.085938 16.566406 28.175781 C 16.355469 28.277344 16.125 28.328125 15.894531 28.324219 C 15.753906 28.324219 15.59375 28.316406 15.417969 28.300781 C 15.242188 28.285156 15.074219 28.265625 14.914062 28.242188 C 14.753906 28.21875 14.625 28.195312 14.527344 28.171875 L 14.527344 24.921875 C 14.714844 24.878906 14.914062 24.847656 15.125 24.824219 C 15.339844 24.800781 15.558594 24.789062 15.777344 24.789062 Z M 15.808594 25.640625 C 15.667969 25.640625 15.53125 25.652344 15.394531 25.683594 L 15.394531 26.261719 L 15.832031 26.261719 C 15.921875 26.265625 16.015625 26.238281 16.089844 26.179688 C 16.125 26.15625 16.15625 26.117188 16.171875 26.078125 C 16.191406 26.035156 16.199219 25.988281 16.199219 25.941406 C 16.199219 25.898438 16.1875 25.855469 16.171875 25.816406 C 16.152344 25.78125 16.125 25.746094 16.089844 25.722656 C 16.007812 25.664062 15.90625 25.636719 15.808594 25.640625 Z M 15.394531 27.433594 C 15.46875 27.457031 15.546875 27.472656 15.628906 27.480469 C 15.714844 27.488281 15.785156 27.492188 15.835938 27.492188 C 15.945312 27.496094 16.050781 27.46875 16.144531 27.410156 C 16.183594 27.386719 16.214844 27.351562 16.234375 27.308594 C 16.253906 27.269531 16.265625 27.21875 16.261719 27.171875 C 16.265625 27.125 16.25 27.078125 16.226562 27.039062 C 16.203125 27 16.167969 26.972656 16.128906 26.957031 C 16.023438 26.910156 15.914062 26.886719 15.804688 26.890625 L 15.394531 26.890625 Z M 15.394531 27.433594 "/>
<path style=" stroke:none;fill-rule:nonzero;fill:rgb(25.882353%,51.372549%,29.803922%);fill-opacity:1;" d="M 19.773438 24.816406 L 21.214844 28.246094 L 20.203125 28.246094 L 20.050781 27.792969 L 19.0625 27.792969 L 18.910156 28.246094 L 17.898438 28.246094 L 19.339844 24.816406 Z M 19.554688 26.339844 L 19.316406 27.039062 L 19.792969 27.039062 Z M 19.554688 26.339844 "/>
</g>
</svg>
