<svg width="37" height="60" viewBox="0 0 37 60" fill="none" xmlns="http://www.w3.org/2000/svg">
<rect x="0.046875" y="0.610352" width="36.1811" height="58.9331" rx="18.0906" fill="#42834C"/>
<path d="M26.3009 33.6368C25.8581 33.4114 23.6603 32.3326 23.2497 32.1877C22.8391 32.0347 22.5412 31.9623 22.2434 32.4131C21.9455 32.864 21.0921 33.8622 20.8265 34.1682C20.5688 34.466 20.3032 34.5063 19.8604 34.2809C17.2359 32.9686 15.513 31.9381 13.7821 28.9675C13.3232 28.1785 14.241 28.2348 15.0944 26.5281C15.2393 26.2302 15.1668 25.9726 15.0541 25.7472C14.9414 25.5218 14.0478 23.3239 13.6775 22.4303C13.3152 21.5609 12.9449 21.6816 12.6711 21.6655C12.4135 21.6494 12.1156 21.6494 11.8178 21.6494C11.5199 21.6494 11.0369 21.7621 10.6263 22.2049C10.2157 22.6557 9.06445 23.7345 9.06445 25.9324C9.06445 28.1302 10.6665 30.2556 10.8839 30.5534C11.1093 30.8513 14.0317 35.3597 18.5159 37.2999C21.3497 38.5236 22.4607 38.6282 23.8776 38.4189C24.7391 38.2901 26.5183 37.3401 26.8886 36.2935C27.2589 35.247 27.2589 34.3533 27.1462 34.1682C27.0416 33.9669 26.7437 33.8542 26.3009 33.6368Z" fill="white"/>
</svg>
