<svg width="46" height="46" viewBox="0 0 46 46" fill="none" xmlns="http://www.w3.org/2000/svg">
<rect x="0.474609" y="0.239258" width="45.0836" height="45.0836" rx="10.0186" fill="#74CD88"/>
<path fill-rule="evenodd" clip-rule="evenodd" d="M11.3265 17.6214C11.6416 18.5419 12.6025 20.3619 13.4617 21.6659C15.5195 24.7896 21.003 30.271 24.1285 32.3289C26.4751 33.8742 29.3103 35.0543 30.6762 35.0543C31.962 35.0543 35.2897 31.5078 35.2897 30.1374C35.2897 29.6239 34.6794 29.0789 32.3691 27.5294C30.763 26.4522 29.252 25.5708 29.0115 25.5708C28.771 25.5708 27.9328 25.8958 27.1487 26.293C26.1573 26.7953 25.5643 26.944 25.2022 26.7811C24.475 26.4542 19.1419 21.1027 18.9541 20.5114C18.8693 20.2447 19.1201 19.3954 19.5111 18.6242C19.902 17.8526 20.222 17.0251 20.222 16.7846C20.222 16.5442 19.3403 15.0338 18.2627 13.4283C16.7127 11.1188 16.1674 10.5088 15.6537 10.5088C14.2318 10.5088 10.728 13.8436 10.7442 15.1816C10.7495 15.6031 11.0115 16.701 11.3265 17.6214ZM12.4803 14.0743C13.2027 13.2004 15.1596 11.6245 15.522 11.6245C15.7866 11.6245 19.1059 16.5501 19.1059 16.9422C19.1059 17.0722 18.7248 17.8245 18.259 18.6141C17.6982 19.565 17.4733 20.2417 17.5927 20.6179C17.8017 21.2765 23.6148 27.2145 24.7619 27.9417C25.5214 28.4231 25.5643 28.4162 27.2143 27.537L28.8937 26.6422L30.9477 27.9219C32.0772 28.6259 33.2904 29.4354 33.6434 29.7213C34.2693 30.2278 34.2729 30.2587 33.7921 30.9926C33.5209 31.4062 32.7915 32.252 32.171 32.8723C31.124 33.9188 30.9619 33.9872 29.9209 33.8206C27.0343 33.3593 22.9964 30.5711 18.5378 25.9608C15.3404 22.6546 13.2259 19.7106 12.3991 17.4142C11.7116 15.5046 11.7242 14.9889 12.4803 14.0743Z" fill="white" stroke="white" stroke-width="1.00186"/>
</svg>
